/vscmnt/brussel_pixiu_data/_data_brussel/112/vsc11236/PredSimResults/SUBJ10mtu3D/worker9.mot
version=1
nRows=6
nColumns=50
inDegrees=yes
endheader
                time	         pelvis_tilt	         pelvis_list	     pelvis_rotation	           pelvis_tx	           pelvis_ty	           pelvis_tz	       hip_flexion_r	     hip_adduction_r	      hip_rotation_r	        knee_angle_r	       ankle_angle_r	         mtp_angle_r	       hip_flexion_l	     hip_adduction_l	      hip_rotation_l	        knee_angle_l	       ankle_angle_l	         mtp_angle_l	    lumbar_extension	      lumbar_bending	     lumbar_rotation	 ercspn_r/activation	 intobl_r/activation	 extobl_r/activation	    abd_r/activation	    add_r/activation	hamstrings_r/activation	bifemsh_r/activation	glut_max_r/activation	iliopsoas_r/activation	rect_fem_r/activation	  vasti_r/activation	gastroc_r/activation	 soleus_r/activation	tib_ant_r/activation	 ercspn_l/activation	 intobl_l/activation	 extobl_l/activation	    abd_l/activation	    add_l/activation	hamstrings_l/activation	bifemsh_l/activation	glut_max_l/activation	iliopsoas_l/activation	rect_fem_l/activation	  vasti_l/activation	gastroc_l/activation	 soleus_l/activation	tib_ant_l/activation	
          1.10223802	         -7.16423053	         -1.77050136	          7.76279087	          1.33370801	          0.81766850	         -0.01193870	         33.36994313	         -1.86710668	         -7.06827422	         -7.88445134	         -3.88639271	          0.27124686	        -13.08705787	         -1.70718926	          3.20341933	         -8.60061299	          5.72705632	         32.11861837	         -5.85925396	         -0.34334047	         -3.37932324	          0.10002414	          0.17660384	          0.03407750	          0.01000011	          0.24158358	          0.02354959	          0.26769430	          0.05915977	          0.04896502	          0.01801543	          0.01000018	          0.02324129	          0.01380009	          0.46024078	          0.05863670	          0.01000043	          0.01000051	          0.05570211	          0.04706863	          0.04030750	          0.21416520	          0.03256135	          0.42697227	          0.01000668	          0.01000135	          0.06205635	          0.07197974	          0.03469854	
          1.11326040	         -7.29000890	         -1.75507852	          7.93386871	          1.34907915	          0.81688484	         -0.01195505	         33.11657971	         -1.68238849	         -6.20082065	         -9.26280979	         -3.98779726	          0.26016945	        -13.02915840	         -1.77283647	          2.88407935	        -10.19220762	          4.40625983	         33.99381555	         -5.68337689	          0.11909426	         -3.51941443	          0.08450237	          0.16359393	          0.02878885	          0.01000023	          0.20409319	          0.04635409	          0.22967511	          0.08334775	          0.04136595	          0.01521955	          0.01000008	          0.01963448	          0.01165852	          0.48736435	          0.07425824	          0.01000021	          0.01000058	          0.04705739	          0.06456705	          0.04170383	          0.18092781	          0.02750804	          0.41365406	          0.01000297	          0.01068658	          0.05242554	          0.06080893	          0.02931348	
          1.12428278	         -7.39808835	         -1.73369063	          8.05155848	          1.36464716	          0.81640297	         -0.01186681	         32.84951710	         -1.51887707	         -5.42418907	        -10.58653846	         -4.18753862	          0.24529734	        -12.80701030	         -1.83108550	          2.53113593	        -12.09776017	          2.92212633	         35.79042590	         -5.51840391	          0.58723639	         -3.64131162	          0.09693239	          0.13820514	          0.02432098	          0.04164428	          0.21926188	          0.05463983	          0.19403105	          0.10496115	          0.03494621	          0.01285760	          0.01000016	          0.01658741	          0.01000069	          0.50261845	          0.10311525	          0.01000019	          0.01000048	          0.03975429	          0.05609904	          0.04445737	          0.15284874	          0.02323896	          0.39499933	          0.01000302	          0.01345540	          0.04428937	          0.05137172	          0.02476416	
          1.13530516	         -7.48608443	         -1.70099105	          8.11659716	          1.38030092	          0.81630659	         -0.01166063	         32.63864045	         -1.37264694	         -4.81535296	        -12.05943639	         -4.24524097	          0.22969297	        -12.37019427	         -1.87831116	          2.14275837	        -14.38618675	          1.26862344	         37.39878396	         -5.37497129	          1.04883465	         -3.74118818	          0.11289699	          0.11675639	          0.02054650	          0.09229930	          0.27147551	          0.05646466	          0.16391855	          0.12471128	          0.02952278	          0.01086228	          0.01000026	          0.01401323	          0.01000159	          0.50769918	          0.14211708	          0.01000020	          0.01000040	          0.03358460	          0.05925896	          0.04115489	          0.12912744	          0.01963240	          0.37188818	          0.01000289	          0.01136870	          0.03741590	          0.04339910	          0.02092088	
          1.14632754	         -7.55187690	         -1.65975412	          8.13202087	          1.39595414	          0.81670557	         -0.01134877	         32.49842481	         -1.24551974	         -4.37542153	        -13.72910698	         -4.04015394	          0.22398933	        -11.66382698	         -1.92075590	          1.71895911	        -17.13110125	         -0.55433277	         38.64061144	         -5.25535708	          1.50268960	         -3.81536408	          0.12449831	          0.09863635	          0.01735780	          0.13346675	          0.31895540	          0.05441630	          0.13847933	          0.14016574	          0.02494103	          0.01000032	          0.01000028	          0.01183855	          0.01000026	          0.48713064	          0.18012875	          0.01000020	          0.01000036	          0.02837242	          0.05908366	          0.03697644	          0.10908766	          0.01658557	          0.33924718	          0.01000158	          0.01000037	          0.03160916	          0.03666379	          0.01767407	
          1.15734993	         -7.59437918	         -1.61040932	          8.10057811	          1.41154404	          0.81769444	         -0.01094540	         32.41358797	         -1.13565336	         -4.09515674	        -15.58210156	         -3.43829847	          0.33921464	        -10.65164391	         -1.96559281	          1.25435604	        -20.36785057	         -2.54995685	         39.28410425	         -5.15817190	          1.94477240	         -3.86203481	          0.13470810	          0.08332845	          0.01466399	          0.16187838	          0.33896944	          0.04778656	          0.11698816	          0.15857534	          0.02107036	          0.01000055	          0.01288357	          0.01000168	          0.01000075	          0.41363796	          0.21455129	          0.01000021	          0.01000033	          0.02396914	          0.06442146	          0.03165181	          0.09215811	          0.01401159	          0.29015088	          0.01000102	          0.01000014	          0.02670360	          0.03097376	          0.01493122	
